<svg xmlns="http://www.w3.org/2000/svg" data-name="Layer 1" viewBox="0 0 700 550"><path d="M567.75238,297.78951c-.65015-.8501-1.22009-1.75-1.79-2.66016-10.99-17.27979-59.01-9.08984-59.01-9.08984-5.42993,41.65991-14.88,36.75-16.63,34.12988-1.75-2.61987-4.91-28.34986-7-31.84986-6.04-.53-18.38-.44018-18.38-.44018-11.91.28027-23.11,10.76025-34.13,27.83008-11.02,17.06006-30.45008,31.5-30.45008,31.5s5.77.53,7.87012,13.13012c1.29.39991,5.15991-1.31,7.98-2.69018a15.27068,15.27068,0,0,1,8.11-1.48975c4.53992.41992,11.07,1.86988,16.28992,6.80982a19.482,19.482,0,0,0,2.04,1.65991c.66-.36987,1.03-.61987,1.03-.61987,10.76-4.46,17.06006-19.94995,17.06006-19.94995a17.46269,17.46269,0,0,1-1.5-6.16993,33.86435,33.86435,0,0,1,.09-6.37011c.23-2.07007.39-4.12012.45-6.17994a33.26888,33.26888,0,0,0-.2699-6.22,17.33611,17.33611,0,0,1,1.43994,6.19,35.54563,35.54563,0,0,1-.13,6.35986c-.23,2.06006-.36,4.11011-.41,6.18017a35.047,35.047,0,0,0,.33008,6.21,65.27164,65.27164,0,0,0,3.88989,16.1499,43.62158,43.62158,0,0,0,8.75,1.93017,27.02877,27.02877,0,0,0,4.41.1399,44.74307,44.74307,0,0,0,4.5-.48,12.97736,12.97736,0,0,1-4.37,1.63989,16.42211,16.42211,0,0,1-2.34.28,23.13852,23.13852,0,0,1-2.36-.09009,18.28794,18.28794,0,0,1-4.56006-1.09985,14.06755,14.06755,0,0,1-4.03-2.32007,30.61924,30.61924,0,0,0,3.33008,6.56006,59.10733,59.10733,0,0,1,21.42993,5.37011c1.71.79,3.28,1.84986,4.86011,2.62989a27.01381,27.01381,0,0,0,5.02991,1.91015,43.48463,43.48463,0,0,0,10.72009,1.51978c1.84.06006,3.59-.0398,5.49-.09986a47.14512,47.14512,0,0,1,5.59.27c3.68006.37989,7.35.79981,10.99,1.44,1.39.24,2.77.5,4.15.77a15.868,15.868,0,0,1-1.64-2.78,20.88456,20.88456,0,0,1-1.56994-4.63013,28.35434,28.35434,0,0,1-.63013-4.85986,26.49089,26.49089,0,0,1,.19006-4.94l.01-.05.0199-.07006a23.843,23.843,0,0,0,1.01-5.46,39.44468,39.44468,0,0,0,.06006-5.64991,53.22412,53.22412,0,0,0-.68994-5.62011c-.36011-1.83008-.84009-3.74-1.1001-5.66993a55.72024,55.72024,0,0,1-.35986-11.6101c.09985-1.92993.29992-3.86011.58984-5.76a56.73807,56.73807,0,0,1,1.09009-5.66992,102.44974,102.44974,0,0,0-.78,11.46,65.15749,65.15749,0,0,0,.83008,11.35986c.12988.94018.35986,1.86011.54993,2.78027l.62,2.83985a45.19424,45.19424,0,0,1,.73,5.81006,30.889,30.889,0,0,1-1.33,11.58007,29.76928,29.76928,0,0,0-.38,4.64991,27.84249,27.84249,0,0,0,.37,4.73,24.71791,24.71791,0,0,0,1.20007,4.60009,17.33469,17.33469,0,0,0,1.45,3.00977c2.16992.44018,4.31995.94018,6.44995,1.53027a42.28737,42.28737,0,0,1,10.24,4.16992,46.18616,46.18616,0,0,0-10.41992-3.46q-2.77515-.64525-5.59009-1.12011a.035.035,0,0,0-.02-.01c-1.73-.3-3.47-.55982-5.22-.79-3.63989-.47-7.29-.87989-10.93994-1.16992a49.70972,49.70972,0,0,0-5.43994-.21c-1.77.05982-3.71008.19-5.55.12989a43.81266,43.81266,0,0,1-11.08008-1.65991,29.25192,29.25192,0,0,1-5.24-2.1001c-.84-.40991-1.65991-.96-2.42993-1.40991-.77-.47-1.54-.96-2.3501-1.36011a51.31542,51.31542,0,0,0-10.15991-4.02,75.24626,75.24626,0,0,0-10.75-2.37988l-8.27.79a3.45081,3.45081,0,0,1,.55,1.16992c2.12988,6.89013-.94006,33.88012-.94006,33.88012,11.80993,8.65992,77.18005,22.05005,77.18005,22.05005,42.13989,7.08985,42.53-30.33008,42.53-30.33008C586.55231,327.17964,571.73236,302.94942,567.75238,297.78951Zm-52.73,68.45a16.42171,16.42171,0,0,1-2.34009.28,23.20644,23.20644,0,0,1-2.36-.08985,18.30938,18.30938,0,0,1-4.55993-1.1001,14.06393,14.06393,0,0,1-4.03-2.32006,43.60068,43.60068,0,0,0,8.75,1.92993,26.99881,26.99881,0,0,0,4.40991.14013,44.73725,44.73725,0,0,0,4.5-.48A12.97745,12.97745,0,0,1,515.0224,366.23946Z"/><path d="M483.23421,288.36673a10.34631,10.34631,0,0,0-.958-1.23194,8.39582,8.39582,0,0,0-1.144-1.03564,6.85132,6.85132,0,0,0-1.31726-.76294,4.67459,4.67459,0,0,0-1.41516-.38281l.15612-.03052a13.23353,13.23353,0,0,1-3.15722,1.05469,9.45409,9.45409,0,0,1-3.37525.11059,6.63349,6.63349,0,0,1-3.18383-1.39087,12.8729,12.8729,0,0,1-2.20374-2.57128,45.5559,45.5559,0,0,1-3.212-5.72779c-.93859-1.97021-1.78308-3.96216-2.57006-6.00879l.8081.53369a5.54347,5.54347,0,0,1-2.73328-.41528,2.88526,2.88526,0,0,1-1.21936-1.08056,3.4046,3.4046,0,0,1-.472-1.49244,7.01216,7.01216,0,0,1,.37842-2.66381,12.51212,12.51212,0,0,1,1.02588-2.34839,6.13477,6.13477,0,0,0,1.05127-3.94507,5.58941,5.58941,0,0,0-.55213-1.95484l-.54492-1.0205c-.18884-.36182-.37146-.72974-.54224-1.106a13.22993,13.22993,0,0,1-.84179-2.34351,22.47541,22.47541,0,0,1-.54688-2.38549c-.17383-.79834-.22766-1.61646-.328-2.4253-.03186-.8164-.08167-1.63086-.03833-2.44629a21.93515,21.93515,0,0,1,2.34912-9.42968.58618.58618,0,0,1,1.0592.04052l.0094.02222a37.97618,37.97618,0,0,0,4.63892,7.92114,29.72889,29.72889,0,0,0,6.5968,6.41284,21.34035,21.34035,0,0,0,8.40906,3.58008,21.97741,21.97741,0,0,0,9.12024-.24438l.02112-.00488a.38.38,0,0,1,.38366.137,14.512,14.512,0,0,1,2.46558,5.56762,27.33722,27.33722,0,0,1,.67847,5.98169,39.21752,39.21752,0,0,1-.427,5.98584,24.76362,24.76362,0,0,0-.395,5.7085,12.48473,12.48473,0,0,0,1.46314,5.28272,8.79407,8.79407,0,0,0,3.81482,3.62939,10.383,10.383,0,0,0,5.26636.93652,16.222,16.222,0,0,0,5.35766-1.37915,1.0108,1.0108,0,0,1,1.40613,1.04737l-.00171.01294a150.34362,150.34362,0,0,1-3.41785,18.92138,60.60117,60.60117,0,0,1-3.14074,9.19263,24.69229,24.69229,0,0,1-2.43152,4.32544,13.20908,13.20908,0,0,1-1.689,1.93725,7.24353,7.24353,0,0,1-2.24743,1.498,4.90539,4.90539,0,0,1-2.84424.31348,5.01314,5.01314,0,0,1-2.51111-1.33936,3.76821,3.76821,0,0,1-.86426-1.23559,10.73819,10.73819,0,0,1-.40991-1.23316c-.22412-.7998-.394-1.58618-.56213-2.37524-.66028-3.1482-1.114-6.30249-1.6178-9.45044l-1.48108-9.43579c-.25391-1.57031-.51941-3.13819-.82642-4.69605a22.25618,22.25618,0,0,0-1.23669-4.55981l-.00635-.01416a.09947.09947,0,0,1,.17786-.08887,20.57406,20.57406,0,0,1,1.5614,4.55005c.39685,1.54834.75146,3.105,1.0946,4.66309.69324,3.11547,1.27723,6.24926,1.90381,9.37158.61536,3.12231,1.25269,6.24585,1.95374,9.321.18286.76392.36987,1.53052.5946,2.25928a9.31814,9.31814,0,0,0,.36572,1.02417,2.10311,2.10311,0,0,0,.51856.68872,3.1053,3.1053,0,0,0,3.48926.57764,8.064,8.064,0,0,0,3.06775-2.884,25.2005,25.2005,0,0,0,2.15576-4.03735,58.59637,58.59637,0,0,0,2.9248-8.90649,178.50845,178.50845,0,0,0,3.47119-18.64893l1.4043,1.0603a18.191,18.191,0,0,1-6.04419,1.45948,12.28,12.28,0,0,1-6.2074-1.2085,10.43645,10.43645,0,0,1-4.53625-4.45068,14.16522,14.16522,0,0,1-1.53394-6.0376,25.54809,25.54809,0,0,1,.56311-6.03272,37.88445,37.88445,0,0,0,.62976-5.76269,25.4564,25.4564,0,0,0-.442-5.74927,13.81374,13.81374,0,0,0-2.0846-5.23022l.40454.13183a24.22162,24.22162,0,0,1-9.42773.07935,20.69939,20.69939,0,0,1-4.50769-1.43042,24.56411,24.56411,0,0,1-4.12939-2.291,32.9566,32.9566,0,0,1-6.87757-6.426,38.8606,38.8606,0,0,1-5.10071-7.967l1.06836.06274a20.71387,20.71387,0,0,0-1.82519,8.86523,22.69319,22.69319,0,0,0,.47571,4.53394,20.7066,20.7066,0,0,0,.557,2.2124,13.30456,13.30456,0,0,0,.7771,2.09522c.15662.34106.32617.6792.50366,1.01562.17786.34546.36011.64038.57276,1.06421a7.38013,7.38013,0,0,1,.73645,2.56983,7.87052,7.87052,0,0,1-1.33887,5.02465,8.07412,8.07412,0,0,0-1.20471,3.95777,1.34463,1.34463,0,0,0,.73975,1.22217,3.99908,3.99908,0,0,0,1.8927.291l.01086-.00049a.80949.80949,0,0,1,.79749.53467c.71533,1.99732,1.52319,3.99414,2.38488,5.94458a44.31038,44.31038,0,0,0,2.90027,5.66724,11.82521,11.82521,0,0,0,1.89893,2.40747,5.59678,5.59678,0,0,0,2.6344,1.25952,11.033,11.033,0,0,0,6.08386-.7583l.04114-.0166a.22764.22764,0,0,1,.11535-.01416,5.1478,5.1478,0,0,1,1.60205.5249,7.33421,7.33421,0,0,1,1.36573.90185,8.32174,8.32174,0,0,1,1.11547,1.17334,10.61151,10.61151,0,0,1,.88343,1.33765.09982.09982,0,0,1-.03687.13648A.10423.10423,0,0,1,483.23421,288.36673Z"/><path d="M459.56648 269.87649c-.20434 1.59058-.41723 3.16822-.58374 4.7483-.15637 1.58056-.3081 3.15747-.35669 4.73413a25.90573 25.90573 0 00.19446 4.69433 8.53873 8.53873 0 00.615 2.238 4.41837 4.41837 0 001.38428 1.86352 4.16718 4.16718 0 01-1.73767-1.68335 8.8474 8.8474 0 01-.87219-2.29736 18.56456 18.56456 0 01-.39221-4.844 32.71661 32.71661 0 01.55175-4.79492A32.06839 32.06839 0 01459.56648 269.87649zM459.08492 236.21561a3.046 3.046 0 01-.27478-2.39234l.165-.59521.2583-.55176c.08972-.18237.17151-.37232.26989-.55l.33924-.50049a13.18735 13.18735 0 011.52759-1.86719c.57251-.5559 1.182-1.06836 1.77966-1.60083a48.88594 48.88594 0 018.06518-4.95044c1.41822-.67309 2.85181-1.31689 4.285-1.957 1.44934-.595 2.90771-1.16943 4.36926-1.73413 1.46509-.53637 2.95252-.99951 4.43189-1.49072.74841-.2251 1.46984-.48071 2.27-.7019a22.80724 22.80724 0 012.35461-.501 23.41706 23.41706 0 019.47.38574 19.7606 19.7606 0 018.31287 4.404 26.07038 26.07038 0 015.69909 7.55054 40.595 40.595 0 013.25562 8.907l.01428.083a46.327 46.327 0 004.03772 12.20215 41.26595 41.26595 0 003.25781 5.53247 35.6775 35.6775 0 004.0752 4.92481l2.37805 2.20263a25.30381 25.30381 0 012.4071 2.4104 22.33461 22.33461 0 013.741 5.6753 19.678 19.678 0 011.39429 13.15673.09971.09971 0 01-.19519-.03906l.00158-.01123a19.21281 19.21281 0 00-.25683-6.47 20.23716 20.23716 0 00-2.196-6.00806 25.368 25.368 0 00-1.71215-2.689 24.52828 24.52828 0 00-2.08594-2.40967 23.46348 23.46348 0 00-2.33936-2.16772l-2.54065-2.19971A36.62341 36.62341 0 01517.83089 251.26a47.61305 47.61305 0 01-2.39539-6.29736 39.99439 39.99439 0 01-1.46435-6.59888l.0144.08252a46.54754 46.54754 0 00-2.66455-8.76563 23.1876 23.1876 0 00-5.0769-7.562 18.31557 18.31557 0 00-3.70826-2.6792 16.49283 16.49283 0 00-4.29748-1.56323 20.718 20.718 0 00-9.06274.21582 21.47565 21.47565 0 00-2.1742.625c-.686.24146-1.41443.55591-2.13953.83154l-4.36731 1.63428c-1.43395.57764-2.871 1.14551-4.31713 1.69287l-4.2511 1.82739a59.97071 59.97071 0 00-8.07471 4.394c-.60107.458-1.22388.90185-1.80749 1.38427a14.44014 14.44014 0 00-1.5962 1.59156l-.36584.42993c-.1062.15185-.19519.31323-.2948.47021l-.2915.47754-.20142.51294a2.87986 2.87986 0 00-.04614 2.13648l.00952.021a.09874.09874 0 01-.17285.09449zM461.55867 255.53689a19.23869 19.23869 0 014.48853-2.39794 16.96987 16.96987 0 012.45141-.73584 6.40609 6.40609 0 012.56971-.11841 15.46024 15.46024 0 00-2.39722.72583l-2.33557.884C464.77168 254.48172 463.21163 255.08694 461.55867 255.53689zM465.93426 261.12636a1.21468 1.21468 0 000-2.42791 1.21468 1.21468 0 000 2.42791zM463.9764 275.83328a15.51186 15.51186 0 001.82422-.05054c.59191-.05395 1.17529-.12548 1.75415-.23584.57812-.11254 1.155-.24169 1.73352-.40014.57934-.15625 1.162-.32862 1.78-.4834a6.10932 6.10932 0 01-1.5575 1.07446 7.31517 7.31517 0 01-1.80872.60449A5.51125 5.51125 0 01463.9764 275.83328zM459.47261 399.02371a59.39279 59.39279 0 00-9.2445-2.57764 27.98014 27.98014 0 00-9.40857-.30029l-1.15259.19434-1.12537.30591a19.53581 19.53581 0 00-2.19775.75683 25.66413 25.66413 0 00-4.10462 2.22949c-1.32238.867-2.57666 1.85938-4.05358 2.71656a17.52992 17.52992 0 01-4.72352 1.81445 19.12211 19.12211 0 01-5.01672.50586 11.03711 11.03711 0 01-5.0791-1.23218 4.58531 4.58531 0 01-1.14307-.98975c-.28979-.356-.46875-.616-.72253-.90771a7.70261 7.70261 0 00-1.63733-1.42017 23.1232 23.1232 0 00-4.2273-1.918 21.07741 21.07741 0 01-4.53015-2.05518 7.73983 7.73983 0 01-1.87475-1.791c-.25537-.32934-.48438-.644-.73-.93481-.12049-.15112-.24756-.28-.37683-.42651-.14087-.167-.30359-.334-.4231-.5022a41.70747 41.70747 0 01-2.62585-4.13111c-.80372-1.40307-1.6034-2.80126-2.37024-4.22412l.23437.17237-2.059-.44922a11.03641 11.03641 0 01-2.08411-.57031 8.677 8.677 0 01-3.451-2.61109 4.433 4.433 0 01-.99476-2.01269 2.82165 2.82165 0 01.621-2.21875 5.68726 5.68726 0 013.89965-1.99146 11.05588 11.05588 0 012.16932.08887l2.09594.15088q2.0973.13257 4.19629.197c2.79761.08569 5.59729.06616 8.37781-.10791a47.37048 47.37048 0 008.19934-1.14868 17.01664 17.01664 0 003.759-1.37647 7.51491 7.51491 0 001.55066-1.07593 9.81968 9.81968 0 001.27991-1.42578 2.31379 2.31379 0 00.5658-1.28271c-.01673-.10278-.03333-.14282-.16517-.2561a2.30548 2.30548 0 00-.6361-.28272 10.24538 10.24538 0 00-3.79395-.05176 12.49643 12.49643 0 00-1.89819.41724 3.59215 3.59215 0 00-.72815.30664l-.21558.14014c-.09424.06543-.18921.11767-.28454.17163a5.28361 5.28361 0 01-.57483.27807 9.43681 9.43681 0 01-2.28333.59326c-.3761.05347-.75024.09107-1.123.11695a5.15689 5.15689 0 01-1.29455-.04761 4.55763 4.55763 0 01-2.40308-1.2146 5.19685 5.19685 0 01-1.32409-2.26929 6.69884 6.69884 0 01.6184-4.87378A4.70043 4.70043 0 01406.8 359.51492a2.59123 2.59123 0 01.84986-.27539 2.14315 2.14315 0 01.52392-.00415 1.96545 1.96545 0 01.26868.04883l.11292.03.01306-.00195a1.89551 1.89551 0 00.61023-.03882 20.08049 20.08049 0 003.74438-1.25928q.94867-.4032 1.89075-.84375l.93945-.44507q.5061-.2417 1.02857-.45483a16.06174 16.06174 0 014.35217-1.07129 17.82286 17.82286 0 014.428.15307 33.91591 33.91591 0 014.243.85987 26.95109 26.95109 0 017.90832 3.52124 23.61927 23.61927 0 013.369 2.73877 26.5076 26.5076 0 003.201 2.52026 27.35461 27.35461 0 0015.94971 3.63672l.00879-.00073a.09991.09991 0 01.01941.19873 26.632 26.632 0 01-16.58081-2.82886 27.54444 27.54444 0 01-3.53137-2.53516A24.39072 24.39072 0 00429.3658 357.918a32.15081 32.15081 0 00-4.0354-.70313 15.83092 15.83092 0 00-3.97888-.03515 14.28979 14.28979 0 00-3.79578.98852c-.30163.12744-.59863.26343-.89367.40869l-.9596.46949q-.96331.46325-1.94751.89868a20.18332 20.18332 0 01-4.22412 1.44067 3.61909 3.61909 0 01-1.48206.002l-.11633-.02685c-.03845-.00928-.00769-.00049-.01453-.00269l.00977.00171c.00537.00073.00684-.00073-.00159.00025a.493.493 0 00-.14563.0542 2.7426 2.7426 0 00-.94165 1.0979 4.60071 4.60071 0 00-.45141 3.2893 3.22794 3.22794 0 00.75061 1.34888 2.47389 2.47389 0 001.29358.67554 2.99608 2.99608 0 00.80554.03515c.32849-.01757.6543-.04541.97449-.08593a7.497 7.497 0 001.79467-.42872 3.252 3.252 0 00.37622-.17407 1.76325 1.76325 0 00.16822-.09741l.22827-.14355a5.29237 5.29237 0 011.20813-.511 14.34844 14.34844 0 012.22119-.45606 11.90361 11.90361 0 014.58032.17334 4.01617 4.01617 0 011.25635.61866 2.221 2.221 0 01.85034 1.51977 2.83146 2.83146 0 01-.28979 1.48755 5.33315 5.33315 0 01-.64844 1.06421 10.80356 10.80356 0 01-1.56946 1.66943 9.2466 9.2466 0 01-1.93481 1.27246 18.62041 18.62041 0 01-4.17517 1.41138 43.62755 43.62755 0 01-8.51258.89649c-2.83581.05981-5.66211-.03638-8.47839-.21631q-2.11212-.13806-4.21668-.3479l-2.10266-.2251a10.448 10.448 0 00-2.033-.11572 5.00731 5.00731 0 00-3.4414 1.68774 2.16035 2.16035 0 00-.51135 1.71 3.835 3.835 0 00.84143 1.7273 7.74422 7.74422 0 003.20739 2.40576 10.40668 10.40668 0 001.98059.519l2.06946.40332a.339.339 0 01.22791.16089l.00671.01147a69.38015 69.38015 0 005.205 8.02637c.12073.15528.24939.2688.37182.40576.144.14869.30567.301.44336.45874.28772.31226.54712.63794.79834.93384a6.54012 6.54012 0 001.66272 1.46094 19.97481 19.97481 0 004.32666 1.72852 22.91616 22.91616 0 014.62268 1.8977 9.41615 9.41615 0 012.03785 1.68555c.28405.30761.57739.70141.80407.96093a3.0239 3.0239 0 00.69007.5608 9.43074 9.43074 0 004.22827.95776 18.4732 18.4732 0 004.56787-.427 15.79049 15.79049 0 004.276-1.58643c1.31494-.74829 2.63306-1.70679 4.01782-2.57959a27.1447 27.1447 0 014.42383-2.26758 20.97515 20.97515 0 012.39526-.718l1.21753-.27637 1.23548-.15845a27.9645 27.9645 0 019.76819.72974 51.96219 51.96219 0 019.141 3.24756.09991.09991 0 01-.071.18652z"/><path d="M393.00728 383.96634c1.94727-.167 3.89465-.24512 5.84192-.30982 1.94739-.07422 3.89465-.08447 5.842-.09472l2.9209.02124a10.92459 10.92459 0 012.96875.40967 43.75232 43.75232 0 015.39831 2.33642c-.94006-.26929-1.8612-.5874-2.79235-.87964a21.56092 21.56092 0 00-2.7544-.85229 12.24981 12.24981 0 00-2.82031-.24781l-2.9209.02124c-1.94739-.01025-3.89465-.0205-5.842-.09448C396.90193 384.21146 394.95455 384.13309 393.00728 383.96634zM393.99715 385.70755c1.309 1.00928 2.5603 2.08618 3.803 3.17358.6427.52246 1.21386 1.13843 1.8396 1.57349a6.51587 6.51587 0 002.08923.99707c.72351.217 1.55981.25 2.38464.40356a24.14111 24.14111 0 012.43982.533 9.81109 9.81109 0 014.43762 2.2107 7.85967 7.85967 0 00-2.21337-1.0188 18.22348 18.22348 0 00-2.36512-.58545c-.80224-.13892-1.60363-.28345-2.41369-.38184a21.95556 21.95556 0 01-2.48792-.38208 7.06029 7.06029 0 01-2.32434-1.16089 20.12127 20.12127 0 01-1.81714-1.74316C396.22042 388.14993 395.08 386.96243 393.99715 385.70755zM375.59383 359.81766a19.70672 19.70672 0 00-2.35022-3.67212l.15442.10009a7.93566 7.93566 0 01-4.1117-1.97265 3.65536 3.65536 0 01-1.04248-2.24829 4.76031 4.76031 0 01.05579-1.26026 11.06006 11.06006 0 01.37134-1.16919 6.59576 6.59576 0 013.45642-3.29492 6.04368 6.04368 0 012.43506-.583 4.35586 4.35586 0 012.5382.79737l-1.31555.42041a6.321 6.321 0 01.81751-1.52881 6.88425 6.88425 0 011.12951-1.24585A7.21031 7.21031 0 01380.714 342.635a8.89738 8.89738 0 013.24487-.168l.77319.09937a4.72572 4.72572 0 01.885.219 7.50255 7.50255 0 011.52588.72046 11.593 11.593 0 014.18494 4.7749 23.49994 23.49994 0 011.96179 5.82251l-1.88684.11548a11.10863 11.10863 0 011.14209-3.68066 7.88722 7.88722 0 012.55749-2.96045 7.09454 7.09454 0 013.73206-1.157 6.81082 6.81082 0 01.95093.02832l.47216.03a2.33248 2.33248 0 01.54651.08911 6.041 6.041 0 011.78382.87037 12.2856 12.2856 0 014.13037 5.97583 29.08955 29.08955 0 011.51489 6.92114 35.168 35.168 0 00-2.22253-6.62183 12.03 12.03 0 00-4.14991-5.16186 5.14684 5.14684 0 00-1.39941-.59571 1.11 1.11 0 00-.32275-.03l-.40723-.00366a5.90276 5.90276 0 00-3.66284 1.04688 7.71285 7.71285 0 00-2.76209 5.408l-.00073.00683a.95759.95759 0 01-1.88611.10865 21.7702 21.7702 0 00-1.84167-5.301 10.29632 10.29632 0 00-3.46216-4.00806 5.5727 5.5727 0 00-1.127-.54956 2.75691 2.75691 0 00-.541-.14355l-.68774-.09619a7.47406 7.47406 0 00-2.61182.08447 5.356 5.356 0 00-2.2511 1.05957 5.24981 5.24981 0 00-1.48718 1.94385l-.04065.09546a.82765.82765 0 01-1.08545.4375.86126.86126 0 01-.18982-.1128 3.32215 3.32215 0 00-3.37366-.21264 5.412 5.412 0 00-2.91247 2.446 3.08471 3.08471 0 00.17663 3.519 7.27413 7.27413 0 003.51587 2.095l.03345.01a.21916.21916 0 01.12122.09034A16.19523 16.19523 0 01375.59383 359.81766zM368.84651 359.13821a4.64021 4.64021 0 00-2.6466-2.35473 4.9091 4.9091 0 00-3.394.25537 2.98122 2.98122 0 00-2.04419 2.26 5.23614 5.23614 0 00.85645 3.10864 15.33851 15.33851 0 002.16077 2.80908c.20044.22071.41174.42188.62024.627l.678.59252c.48389.41822.95142.84449 1.41468 1.27417 1.855 1.71631 3.58838 3.5188 5.3175 5.34815a.93848.93848 0 01.24536.49634l.01026.06372a6.76 6.76 0 00.56445 1.67822 9.16662 9.16662 0 002.28626 2.9856c.48791.44165.975.7373 1.62768 1.238a12.12321 12.12321 0 012.97241 3.4021 14.769 14.769 0 011.70118 4.14527l-.04554-.14283a6.15884 6.15884 0 002.43689 3.07105 7.97637 7.97637 0 003.958 1.08691 17.48457 17.48457 0 004.33936-.44922 27.71019 27.71019 0 004.26672-1.29614 22.38275 22.38275 0 01-4.10315 1.88257 16.97764 16.97764 0 01-4.49512.91943 8.97531 8.97531 0 01-4.6687-.92944 7.36741 7.36741 0 01-1.93945-1.55664 9.03745 9.03745 0 01-1.32617-2.08228l-.01807-.04638-.02771-.09668a13.72225 13.72225 0 00-1.62268-3.5437 11.28327 11.28327 0 00-2.60217-2.83033c-.459-.35205-1.172-.7937-1.7295-1.28955a11.03341 11.03341 0 01-1.593-1.65136 10.10478 10.10478 0 01-1.22254-1.96656 8.35866 8.35866 0 01-.71814-2.3103l.25562.55982c-1.6742-1.82105-3.40283-3.61646-5.13574-5.37012-.43677-.43457-.877-.86475-1.32337-1.27832l-.708-.665c-.229-.23975-.46069-.47827-.6715-.72681a16.43533 16.43533 0 01-2.21351-3.24512 6.2 6.2 0 01-.75732-4.04907 3.41588 3.41588 0 01.4093-1.04077 5.96733 5.96733 0 01.69983-.84985l.86878-.5979.93286-.38306a5.43635 5.43635 0 013.92041.113A4.69362 4.69362 0 01368.84651 359.13821z"/><path d="M371.08541 373.72732a5.956 5.956 0 01.06115-3.373 3.91263 3.91263 0 01.85877-1.53907 2.125 2.125 0 011.57422-.73242 3.18 3.18 0 00-1.07325 1.117 6.1717 6.1717 0 00-.58874 1.39892C371.59737 371.58792 371.4023 372.63528 371.08541 373.72732zM373.44832 355.99979c.68738-.16895 1.24878-.28663 1.84485-.40381a10.442 10.442 0 011.89624-.24634 2.84915 2.84915 0 01-1.74231 1.04053A2.47786 2.47786 0 01373.44832 355.99979zM377.09871 347.20706a8.98488 8.98488 0 00.33911 2.57007 4.48217 4.48217 0 001.28186 2.1792 3.18724 3.18724 0 002.41663.73022 8.18582 8.18582 0 001.3302-.21948l1.28638-.4646-1.24695.58325a8.40308 8.40308 0 01-1.34461.34961 3.5665 3.5665 0 01-2.74817-.584 5.0885 5.0885 0 01-1.68444-2.33008 9.80011 9.80011 0 01-.63-2.80615.501.501 0 11.9989-.07764q.00165.02307.00147.04541z"/><path d="M381.12752 352.85647a25.09736 25.09736 0 011.834 3.31421 12.35009 12.35009 0 011.19532 3.68335 1.51989 1.51989 0 00.92456 1.063 5.62925 5.62925 0 001.66247.53223 5.215 5.215 0 001.7898.01538 2.38238 2.38238 0 001.58569-.79859 2.36056 2.36056 0 01-1.49145 1.18384 5.596 5.596 0 01-1.94947.21851 5.24424 5.24424 0 01-1.94323-.46753 2.235 2.235 0 01-1.38538-1.69336 17.90336 17.90336 0 00-.96252-3.50366zM393.33772 354.13748a13.36288 13.36288 0 001.46448 4.46021 7.40132 7.40132 0 00.63611.94824 7.47009 7.47009 0 01.79395 1.15722 6.53955 6.53955 0 01.54724 1.30787c.13733.479.2019.87622.29712 1.27221a3.8734 3.8734 0 00.287 1.02417 2.96849 2.96849 0 00.72815.75879 2.709 2.709 0 002.01331.55371 3.35907 3.35907 0 001.90954-1.15234 9.41493 9.41493 0 001.387-2.01123l-.02088.06421a25.56086 25.56086 0 00.49756-3.5708 11.61028 11.61028 0 00-.23828-3.6001 11.73728 11.73728 0 01.50208 3.60718 25.93593 25.93593 0 01-.24268 3.66137.18589.18589 0 01-.0155.053l-.0055.01172a10.04118 10.04118 0 01-1.3291 2.25464 4.14633 4.14633 0 01-2.26452 1.55981 3.697 3.697 0 01-2.80042-.53833 4.07132 4.07132 0 01-1.08862-.99072 2.08831 2.08831 0 01-.35169-.73022l-.18725-.62427a7.16486 7.16486 0 00-.86988-2.17212 5.94261 5.94261 0 00-.70825-.88257 8.95866 8.95866 0 01-.86059-1.09692 15.0663 15.0663 0 01-2.05384-5.00049 1.00129 1.00129 0 111.95166-.44873c.0055.02368.01014.04761.0138.07153zM391.49237 371.65962c.03992 0 .07.00977.10986.00977l.09009.06006z"/><path d="M411.78229,370.30953c-17.18006-2.61011-33.37-9.27-37.39-11a6.44642,6.44642,0,0,0-2.2-.53c-3.66-.19-4.91992,1-5.26,2.23a2.85018,2.85018,0,0,0,1.29,3.15014l17.87,11.23975.00989-.00977a15.572,15.572,0,0,1,3.1001-2.84008,13.256,13.256,0,0,1-1.55,2.5,9.45714,9.45714,0,0,1,5.08008.02c20.68994,1.96,25.88989-2.3601,25.88989-2.3601C416.40228,370.6396,411.78229,370.30953,411.78229,370.30953Zm-15.09-1.71,4.2,3.06006-9.62988-1.44018-8.67005-5.80982Zm5.4,5.19c-3.57995-.33008-7.15-.74-10.72009-1.14014a.6721.6721,0,0,1-.2-.06983c-3.3-1.99-6.59-4-9.85-6.06l-4.89-3.10987c-1.6-1.07007-3.23-2.10009-4.82007-3.20019,1.71008.90014,3.39014,1.8501,5.08008,2.77l5.03,2.87011c3.32,1.8899,6.6,3.84986,9.87988,5.81983,3.52.43017,7.06006.87012,10.58008,1.37012,3.55005.5,7.11,1.02,10.65,1.64013C409.24237,374.45943,405.66229,374.12935,402.09234,373.78951Z"/><path fill="#fff" d="M391.69232,371.72945l-.2-.06983c.03992,0,.07.00977.10986.00977Z"/><path d="M269.87137,228.27912s-2.56775-1.54065-4.96433,1.19829c0,0-4.27959-6.08088-22.42507-.815,0,0,2.39657,4.58109,4.10841,4.58109s-3.25249,7.87445-7.87445,7.53209c0,0-7.87445,11.46931-1.883,22.59625,5.90522,10.96684,10.14751,14.4505,16.00487,7.33689a4.44017,4.44017,0,0,1,.5986-.60592c1.6845-1.38911,9.14193-7.16492,11.785-2.85813a4.19837,4.19837,0,0,1,.448,3.17276c-1.20644,5.05264-6.84775,23.66253-23.18745,16.2354,0,0-19.04179-7.14067-14.55046-24.05694a21.12618,21.12618,0,0,1,2.07277-4.91859,13.21653,13.21653,0,0,0,.97874-10.41941,10.44309,10.44309,0,0,0-4.36874-5.92686c-2.06263-1.28659-4.78167-1.86177-6.84138,1.73586a9.95,9.95,0,0,0-1.30422,4.91137c-.0039,1.57651.2893,3.51,1.58822,4.43781l-1.58826,3.08131a21.06678,21.06678,0,0,0-3.28187-4.83862,14.38937,14.38937,0,0,1-4.02465-8.21555c-.58152-4.92316.11861-12.27393,5.98465-20.84022,0,0,7.87446-15.7489,22.59626-15.40654S267.13243,210.476,269.87137,228.27912Z"/><path d="M245.2209 248.82107a27.54322 27.54322 0 017.803-.64282 19.62754 19.62754 0 013.90674.59253 7.89891 7.89891 0 013.52563 1.76221 11.97322 11.97322 0 00-3.67907-1.03613c-1.25843-.18091-2.52832-.3125-3.80921-.36988C250.40828 248.96829 247.835 248.95608 245.2209 248.82107zM269.87142 248.57669a7.01542 7.01542 0 00-2.54383 1.40161 3.23836 3.23836 0 00-1.17456 2.3667 7.43019 7.43019 0 00.721 2.6875l1.11951 2.75195a16.63306 16.63306 0 011.43151 5.89966 4.46246 4.46246 0 01-.29089 1.5708 3.11946 3.11946 0 01-.97119 1.29077 4.68269 4.68269 0 01-2.94153.699 4.88849 4.88849 0 002.64319-1.05737 3.10763 3.10763 0 00.81836-2.49732 11.39531 11.39531 0 00-.57593-2.7981c-.28772-.92675-.63171-1.845-.99817-2.76-.3518-.92164-.7323-1.83814-1.07483-2.782-.16381-.47656-.33007-.95166-.45874-1.4541a4.06235 4.06235 0 01-.15942-1.60644 3.67559 3.67559 0 011.6239-2.67432A6.3989 6.3989 0 01269.87142 248.57669z"/><path d="M269.87142 228.27908q.481 2.87805.71533 5.78736.26751 2.9044.33056 5.82617c.03028 1.94751.00123 3.89868-.15087 5.85132a16.70651 16.70651 0 01-1.31275 5.78247.26794.26794 0 01-.043.0625 23.51788 23.51788 0 00-1.68908 2.03735 8.292 8.292 0 00-.69251 1.124 1.98867 1.98867 0 00-.25366 1.26636 1.93711 1.93711 0 01.07007-1.34155 8.54078 8.54078 0 01.57263-1.241 15.33905 15.33905 0 011.54419-2.24512l-.04273.06226a11.24654 11.24654 0 00.6576-2.72021c.14843-.93873.20837-1.89747.27905-2.85279.11316-1.91772.13293-3.84692.14392-5.7771C270.00008 236.03763 269.91524 232.167 269.87142 228.27908zM259.6003 261.83108a6.73529 6.73529 0 00-.436 1.15747 2.4831 2.4831 0 00-.07129 1.136 1.90534 1.90534 0 00.47144 1.00855 6.29228 6.29228 0 00.89184.84765 5.79248 5.79248 0 01-.61035-.21875 3.31636 3.31636 0 01-.54541-.37573 2.05515 2.05515 0 01-.6759-1.18262 2.47112 2.47112 0 01.19653-1.33691A2.82387 2.82387 0 01259.6003 261.83108zM220.05684 252.416a9.13077 9.13077 0 011.40112 2.46485 6.7469 6.7469 0 01.38831 1.40845 3.84671 3.84671 0 01.04993.76513l-.00489.197.0116.10694a.3728.3728 0 00.04395.20044 1.37755 1.37755 0 00.72644.69018 5.8047 5.8047 0 001.19421.4524 11.44444 11.44444 0 002.69434.39086 5.66442 5.66442 0 01-2.83094.33863 5.0357 5.0357 0 01-1.45092-.37183 2.21179 2.21179 0 01-1.22693-1.177 1.19534 1.19534 0 01-.08826-.47485l-.00342-.24024.00733-.1499a4.23065 4.23065 0 00-.01392-.62109 9.46335 9.46335 0 00-.205-1.303C220.55574 254.21341 220.30013 253.32913 220.05684 252.416zM218.46858 255.49734a18.89671 18.89671 0 01-1.60546 3.98365 19.71482 19.71482 0 01-2.41309 3.58886 13.723 13.723 0 01-3.28149 2.8689 8.39809 8.39809 0 01-4.12684 1.25513 11.94192 11.94192 0 003.71289-1.8711 18.45187 18.45187 0 002.97156-2.86914 33.04168 33.04168 0 002.502-3.35132C216.99556 257.92825 217.75765 256.73758 218.46858 255.49734zM231.01265 295.55423a15.22508 15.22508 0 003.04785-1.78369 26.04436 26.04436 0 002.65772-2.27808c.85974-.79394 1.63061-1.68164 2.43127-2.55054l1.16565-1.3457c.37952-.45923.75806-.92187 1.17566-1.36523-.2384.55517-.51562 1.09155-.792 1.63134-.313.51514-.62085 1.03833-.965 1.53711a18.88623 18.88623 0 01-2.35656 2.77784 14.95094 14.95094 0 01-2.91541 2.21411A8.32414 8.32414 0 01231.01265 295.55423z"/><path d="M213.8868,262.76126a13.88671,13.88671,0,0,0-3.11878-3.29639,1.95383,1.95383,0,0,0-1.88147-.39917,2.81947,2.81947,0,0,0-1.14612,1.63037,12.23388,12.23388,0,0,0-.50341,2.17725c-.05091.36792-.09607.75073-.12928,1.10449.002.33692.0315.73267.06531,1.10083a25.85846,25.85846,0,0,0,.83631,4.46387,32.4799,32.4799,0,0,0,3.47644,8.46558,38.78368,38.78368,0,0,0,5.60571,7.28686c1.07849,1.09082,2.19946,2.14111,3.337,3.16455,1.18152.97486,2.31043,2.02173,3.54029,2.91675.59338.47925,1.24743.86816,1.86706,1.30664.65589.3772,1.28565.80542,1.96888,1.12573a18.11621,18.11621,0,0,0,4.18054,1.63843,12.26409,12.26409,0,0,0,8.68237-.91138,17.23217,17.23217,0,0,0,6.56506-6.17651.04775.04775,0,0,1,.06421-.02051.05172.05172,0,0,1,.02051.06372,16.17457,16.17457,0,0,1-6.29883,6.78882,12.42924,12.42924,0,0,1-4.50732,1.51148,13.23427,13.23427,0,0,1-4.75659-.30249,17.27552,17.27552,0,0,1-4.4137-1.71558c-.7074-.35132-1.34961-.80615-2.02075-1.2124-.62988-.46436-1.29639-.88208-1.894-1.385-1.25269-.94092-2.34949-2.04-3.50867-3.07251-.59119-.50293-1.09229-1.10327-1.635-1.6565-.52295-.57348-1.089-1.10473-1.57471-1.71118a59.42732,59.42732,0,0,1-5.50451-7.46972,36.90351,36.90351,0,0,1-3.95228-8.4209,21.96419,21.96419,0,0,1-.90991-4.60742c-.02612-.40064-.0498-.77442-.041-1.209.04541-.41186.10107-.79492.1643-1.18921a12.94945,12.94945,0,0,1,.59217-2.30932,3.2477,3.2477,0,0,1,1.57995-1.95142,1.92587,1.92587,0,0,1,1.33277-.0271,3.64176,3.64176,0,0,1,1.08776.5957,12.2214,12.2214,0,0,1,2.91114,3.65332.04745.04745,0,0,1-.01782.0647A.05026.05026,0,0,1,213.8868,262.76126Z"/><path d="M216.77889,258.73a13.15279,13.15279,0,0,0-5.00952-1.81689,7.37506,7.37506,0,0,0-5.08667.91113,6.19785,6.19785,0,0,0-1.77991,1.904l-1.5531,2.23071a33.35942,33.35942,0,0,1-3.44141,4.272.29633.29633,0,0,1-.22461.085l-.02307-.00147c-6.39722-.3789-12.81641-.53076-19.21875-.48755-3.20178.02661-6.40027.155-9.58032.40479a40.61191,40.61191,0,0,0-9.30969,1.616l-.05359.01464-.07325.01563a16.19356,16.19356,0,0,0-4.731,2.05933,21.8771,21.8771,0,0,0-2.1836,1.51123l-1.05542.81225c-.34057.2854-.66162.59644-.9934.89307a45.42189,45.42189,0,0,0-6.99622,8.10254,89.86153,89.86153,0,0,0-9.79443,19.20068c-.61365,1.69873-1.28565,3.37573-1.85181,5.09131l-1.62036,5.17554c-.54834,1.7041-1.0387,3.51025-1.67737,5.23584-.621,1.74267-1.34766,3.428-2.04321,5.10131l-2.1416,5.02759-1.11524,2.50537a28.05,28.05,0,0,1-1.26929,2.53711,3.2124,3.2124,0,0,1-.3208.43506c.06787.00269.07373-.15332.07752-.09082a.96547.96547,0,0,0,.01221.293,3.74839,3.74839,0,0,0,.3623,1.0144,6.72383,6.72383,0,0,0,1.473,1.89161,8.09052,8.09052,0,0,0,4.39514,2.009l-.64294,1.56055a28.64408,28.64408,0,0,1-2.85779-2.55811,8.4602,8.4602,0,0,1-1.27246-1.6438,2.985,2.985,0,0,1-.25317-.614,2.932,2.932,0,0,1-.06531-.42749,1.65823,1.65823,0,0,1,.095-.55347,1.31405,1.31405,0,0,1,.33667-.50171,2.50015,2.50015,0,0,1,.21887-.18188c.06629-.03833.13074-.06861.198-.10059a2.33028,2.33028,0,0,1,.71155-.19824,7.43847,7.43847,0,0,1,2.10022.14868c.64428.1167,1.261.27295,1.87536.43433l1.83142.58227,1.77149.71045c4.6272,2.08789,8.73108,4.85962,13.00317,7.29859a122.52969,122.52969,0,0,0,13.145,6.65063,138.01062,138.01062,0,0,0,13.85791,5.04492l.00562.00171a.59312.59312,0,0,1,.41565.61548,131.48721,131.48721,0,0,0-.49463,13.83008,48.116,48.116,0,0,0,.58691,6.85205,12.54843,12.54843,0,0,0,.94507,3.20654,3.22353,3.22353,0,0,0,.9281,1.178c.10181.04419.20056.0918.29907.144.104.032.21485.03028.32117.05469.23914.02856.56555.01147.84412.019l27.81945.07593c9.27308.04566,18.54566-.00464,27.81861-.01562l27.81885-.094-.3208.14185a44.994,44.994,0,0,1,6.19348-5.42847,33.98951,33.98951,0,0,1,7.1853-4.05957,20.89334,20.89334,0,0,1,8.14563-1.63525,16.85615,16.85615,0,0,1,4.19812.60913l3.85413,1.2915c1.28808.41821,2.57959.82544,3.87365,1.20264a17.53561,17.53561,0,0,0,3.83948.8291,10.83057,10.83057,0,0,1,4.125,1.33838,6.78532,6.78532,0,0,1,1.78662,1.38013,3.13777,3.13777,0,0,1,.8418,2.30322,12.80566,12.80566,0,0,1-.07288,2.14844,3.92368,3.92368,0,0,1-.99841,2.22192,3.59333,3.59333,0,0,1-2.24341,1.02368,8.13134,8.13134,0,0,1-2.23157-.07007,15.68644,15.68644,0,0,1-2.07849-.47387l-1.94482-.58789a15.203,15.203,0,0,0-1.89356-.41333,3.80381,3.80381,0,0,0-1.60315.01562l.19214-1.32373a17.0129,17.0129,0,0,0,8.73108,3.04663,21.52148,21.52148,0,0,0,4.73914-.272c1.61609-.22071,3.219-.49195,4.84765-.76319.82-.12963,1.63477-.2727,2.53589-.33056a5.25364,5.25364,0,0,1,1.47718.08691,2.77086,2.77086,0,0,1,1.51013.89063,4.18227,4.18227,0,0,1,.76562,1.36523,7.23,7.23,0,0,1,.20447,4.17236,6.80266,6.80266,0,0,1-3.43945,4.29834,14.02994,14.02994,0,0,1-5.05628,1.48291l.77-.57959a14.44281,14.44281,0,0,1-1.52429,2.66456,12.9547,12.9547,0,0,1-2.073,2.27832,9.25744,9.25744,0,0,1-2.75342,1.59253,8.18877,8.18877,0,0,1-3.20886.407l.82215-.33789c-1.671,1.947-3.31031,3.85815-5.19239,5.699-.24023.22852-.49426.45923-.7771.6875a8.66307,8.66307,0,0,1-.91211.60694,14.27623,14.27623,0,0,1-1.84716.87353,21.75,21.75,0,0,1-3.82825,1.09668,28.48767,28.48767,0,0,1-7.85181.36157c-.65344-.04565-1.29919-.15161-1.94922-.22534l-1.9259-.3374-1.805-.29517-1.83741-.19165a89.7273,89.7273,0,0,0-14.99023.48389c-5.009.50781-10.00379,1.26367-14.974,2.1438-2.46594.438-4.90833,1.01782-7.39624,1.56592-2.47754.55029-4.9635,1.08618-7.45618,1.58959-4.98755.99634-9.99695,1.90357-15.03589,2.625a223.11045,223.11045,0,0,1-30.428,2.4065c-1.27308.00513-2.54566.05224-3.81861.0227l-3.8186-.08593c-2.54663-.01807-5.08789-.19922-7.62952-.3501-2.5448-.1084-5.07605-.40283-7.61011-.65015-1.2727-.14062-2.51928-.21826-3.81726-.42016a33.07927,33.07927,0,0,1-3.81066-.82227,28.71557,28.71557,0,0,1-13.2743-7.87768,24.30477,24.30477,0,0,1-6.53747-13.91651c-1.115-10.12524-1.56275-20.2644-1.81665-30.40869q-.33216-15.2157-.08325-30.42822a.1.1,0,0,1,.2.00195q.06372,15.20617.70044,30.39941c.44848,10.11768,1.00195,20.25367,2.25964,30.272a22.91339,22.91339,0,0,0,6.35046,13.05542A27.25013,27.25013,0,0,0,152.22615,413.94a31.40562,31.40562,0,0,0,3.62464.74976c1.20935.17895,2.49646.25171,3.74414.37817,2.51355.22339,5.0227.49414,7.54651.57959,2.52026.12769,5.03881.28613,7.56384.28174l3.78479.053c1.26147.0188,2.52344-.03931,3.78491-.05518l3.78442-.07715,3.78077-.19531c2.52209-.09985,5.03674-.321,7.55261-.52344,2.51892-.16357,5.02319-.49926,7.53515-.74341,2.50464-.312,5.01075-.62109,7.50745-.99511,4.99768-.72486,9.96741-1.63428,14.92-2.63306,2.47583-.50488,4.94495-1.04175,7.41541-1.59546,2.46155-.54687,4.95325-1.14306,7.47876-1.59668,5.01111-.897,10.04761-1.66894,15.1261-2.19336a86.868,86.868,0,0,1,15.374-.4519l1.94324.21191,1.94556.32837,1.8175.32715c.60889.0708,1.21533.1748,1.82617.22a26.483,26.483,0,0,0,7.29248-.29761,19.81348,19.81348,0,0,0,3.476-.97534,12.37067,12.37067,0,0,0,1.5913-.74048,6.83965,6.83965,0,0,0,.67322-.43969c.21118-.16895.428-.36255.648-.56983,1.75293-1.69556,3.4342-3.62573,5.071-5.51758a.98156.98156,0,0,1,.7738-.33984l.04858.00171a6.2668,6.2668,0,0,0,2.40992-.29468,7.35556,7.35556,0,0,0,2.15942-1.24048,11.08667,11.08667,0,0,0,1.7616-1.92358,12.78071,12.78071,0,0,0,1.31933-2.26611l.00232-.00538a.97489.97489,0,0,1,.76795-.5747,12.23964,12.23964,0,0,0,4.34875-1.23316,4.94586,4.94586,0,0,0,2.57227-3.13354,5.11327,5.11327,0,0,0,.1112-2.08643,3.91585,3.91585,0,0,0-.65576-1.79565.94063.94063,0,0,0-.57275-.34009,3.62259,3.62259,0,0,0-.974-.05322c-.73963.03808-1.54895.16528-2.35193.2854-1.61536.25171-3.25574.51172-4.89783.71875a23.25414,23.25414,0,0,1-5.084.2312,18.51258,18.51258,0,0,1-9.59607-3.49463l-.01489-.011a.74907.74907,0,0,1,.20715-1.31274,4.91014,4.91014,0,0,1,2.4292-.09741,16.70746,16.70746,0,0,1,2.08105.47558l1.95008.61133a14.22338,14.22338,0,0,0,1.88574.45264c1.22973.20971,2.56836.18652,3.22619-.49927.69361-.67651.73658-2.01416.70472-3.3501a2.91285,2.91285,0,0,0-.01844-.45581.79388.79388,0,0,0-.07141-.32007,1.97289,1.97289,0,0,0-.3966-.65014,5.48279,5.48279,0,0,0-1.41712-1.10449,9.62048,9.62048,0,0,0-3.5592-1.20948,18.68625,18.68625,0,0,1-4.1-.91992c-1.31042-.39673-2.60632-.82056-3.89807-1.25488l-3.86133-1.33863a15.86726,15.86726,0,0,0-3.83532-.58544,19.86416,19.86416,0,0,0-7.73,1.47314,39.08656,39.08656,0,0,0-13.126,9.09863l-.0138.01392a.43052.43052,0,0,1-.30725.12817l-27.81616-.094c-9.27209-.011-18.54443-.06128-27.81628-.01563l-27.81555.07593c-.30018-.00464-.556.01807-.8927-.00854a3.60541,3.60541,0,0,1-.53309-.08765l-.48742-.22607a3.98742,3.98742,0,0,1-1.24182-1.48853,13.34305,13.34305,0,0,1-1.06971-3.42651,48.96381,48.96381,0,0,1-.69726-6.98462,132.4562,132.4562,0,0,1,.307-13.96289l.42114.61718a138.535,138.535,0,0,1-14.06116-4.907,123.98171,123.98171,0,0,1-13.38855-6.55176c-4.34656-2.38818-8.48389-5.16235-12.89233-7.12036l-1.67151-.66259-1.70337-.53394c-.5813-.15015-1.16406-.29468-1.73645-.39526a6.06113,6.06113,0,0,0-1.58386-.127c-.071.01831-.19507.03321-.17786.043l-.0116-.00293a.09022.09022,0,0,0,.04578-.02783c.00842-.0271.06665-.06714.0769-.12646.03016-.23707-.00109-.0149.131.16625a6.99879,6.99879,0,0,0,1.00756,1.26661,27.05661,27.05661,0,0,0,2.673,2.37085l.00818.00634a.87415.87415,0,0,1-.65113,1.5542,9.85821,9.85821,0,0,1-5.37341-2.43628,8.47985,8.47985,0,0,1-1.86389-2.384,5.43647,5.43647,0,0,1-.543-1.54492,2.49966,2.49966,0,0,1,.0271-1.05737,1.7009,1.7009,0,0,1,.3761-.6941c.01977-.05566.00659-.00512.07092-.12133.3927-.67774.79077-1.53638,1.1665-2.33765l1.11475-2.46948,2.15759-4.99268c.70813-1.67871,1.42969-3.32934,2.03736-5.00854.632-1.68213,1.10217-3.38526,1.675-5.13819l1.66491-5.22143c.58167-1.73169,1.271-3.42871,1.90137-5.14429a91.39151,91.39151,0,0,1,10.07678-19.489,54.46556,54.46556,0,0,1,3.38074-4.36768,44.09928,44.09928,0,0,1,3.91846-3.92017c.34924-.30444.68664-.62182,1.04577-.91479l1.11524-.83667a23.13051,23.13051,0,0,1,2.3164-1.55859,17.06522,17.06522,0,0,1,5.25733-2.17115l-.12647.03028a41.58694,41.58694,0,0,1,9.6427-1.56079c3.22327-.21192,6.44593-.29908,9.66468-.28492,6.43908.01368,12.86108.33985,19.2738.85132l-.24731.08325a33.16959,33.16959,0,0,0,3.43981-4.09692l1.594-2.187a6.67129,6.67129,0,0,1,1.9447-1.98438,5.93623,5.93623,0,0,1,2.62146-.91723,10.009,10.009,0,0,1,2.7511.0542,13.40457,13.40457,0,0,1,5.07617,1.96557.09986.09986,0,0,1-.10571.16944Z"/><path d="M169.81758 275.69705a7.3631 7.3631 0 013.27967 1.96069 10.11707 10.11707 0 012.18835 3.20166 10.46263 10.46263 0 01.85742 3.76709 10.65981 10.65981 0 01-.09778 1.91163 10.459 10.459 0 01-.49609 1.84277c-.22192-.61865-.322-1.21558-.485-1.79907-.17493-.57984-.27979-1.157-.47425-1.70874a26.59093 26.59093 0 00-1.13843-3.21753 23.10081 23.10081 0 00-1.57214-3.01148A28.97761 28.97761 0 00169.81758 275.69705zM174.17964 299.66287c.38526 4.439.57325 8.877.69178 13.31445.131 4.4375.145 8.87427.13647 13.311-.046 4.43628-.11719 8.87256-.30469 13.3081-.175 4.43555-.42114 8.87061-.866 13.30445-.3877-4.43921-.57679-8.8772-.69471-13.31445-.13049-4.43775-.14453-8.87452-.13342-13.311.04846-4.43652.11951-8.87256.30762-13.30811C173.49227 308.53177 173.73726 304.09671 174.17964 299.66287zM265.72823 270.33646q5.49353 3.43725 10.78552 7.16015 2.6488 1.85889 5.254 3.78491l2.58484 1.97437a11.209 11.209 0 011.2771 1.11792l.61425.64136.51722.65551a48.72433 48.72433 0 013.658 5.43482q1.65691 2.79566 3.225 5.62817 3.09906 5.69055 6.38281 11.25391 1.64245 2.7843 3.34778 5.53149l1.70069 2.74585a14.3901 14.3901 0 001.78649 2.50879c.72461.71069 1.58741 1.415 2.338 2.29956a5.476 5.476 0 011.51257 3.41626 5.09959 5.09959 0 01-1.5968 3.45142 16.99117 16.99117 0 01-1.28894 1.17456c-.40259.32446-.79358.665-1.17627 1.01636-.76965.70678-1.47766 1.44921-2.19776 2.248-.73291.81006-1.49206 1.596-2.26232 2.3728a52.38512 52.38512 0 01-4.94349 4.35157 28.22468 28.22468 0 01-5.74438 3.44311 13.38874 13.38874 0 01-3.3523.92774 7.8103 7.8103 0 01-3.60876-.31372.78157.78157 0 01-.44312-.344l-.00646-.01074c-.75074-1.24341-1.57239-2.4834-2.40369-3.697q-1.24568-1.8285-2.60913-3.56934a40.0603 40.0603 0 00-2.92139-3.29663 10.00568 10.00568 0 00-3.57007-2.46924l-.00732-.00268a.09988.09988 0 01.05273-.19214 9.68258 9.68258 0 013.99842 2.125 29.80366 29.80366 0 013.295 3.10718 61.39516 61.39516 0 015.62439 7.07055l-.44922-.35473a8.349 8.349 0 005.59912-.81421 26.25851 26.25851 0 005.24231-3.31006 57.13862 57.13862 0 004.77966-4.15479c.76648-.73291 1.525-1.47705 2.25855-2.24536.74341-.782 1.5448-1.58032 2.38293-2.3081.421-.36621.85242-.72217 1.298-1.062.40381-.33692.787-.62476 1.12512-.968a3.568 3.568 0 001.20373-2.20313 3.89832 3.89832 0 00-1.00354-2.39087c-.61267-.78808-1.386-1.502-2.13708-2.35937a7.99391 7.99391 0 01-.55493-.70386l-.43347-.7334-.77991-1.43139-1.52478-2.85523q-1.50915-2.8612-3.08276-5.68213c-2.104-3.75854-4.3219-7.45434-6.72449-11.02929-2.38147-3.56983-4.79749-7.18384-7.37781-10.48194l-.48767-.60962-.50879-.52a9.50632 9.50632 0 00-1.13135-1.03l-2.514-1.99731-5.076-3.9856q-5.08722-3.98107-10.04371-8.15356a.10026.10026 0 01.11756-.16186z"/><path d="M279.11531 302.62991c-1.75061 6.57862-3.40356 13.17334-4.7843 19.79395a77.38494 77.38494 0 00-1.48474 9.95215c-.0946 1.60913-.10425 3.38549-.24548 5.10717a29.65153 29.65153 0 01-.87781 5.19947 27.73078 27.73078 0 01-4.96131 9.24023c-1.0288 1.37207-2.119 2.69873-3.13964 4.03174-.49085.66186-.989 1.31885-1.42981 2.0271-.47278.68335-.90015 1.40185-1.32556 2.1228a84.1921 84.1921 0 00-4.48389 9.05811c-1.384 3.09424-2.57752 6.27368-3.7439 9.4729a83.21184 83.21184 0 016.86341-19.28858 34.64966 34.64966 0 012.71887-4.44507c1.0083-1.39428 2.04138-2.7246 3.01465-4.10058a26.3282 26.3282 0 004.56152-8.65479 27.67979 27.67979 0 00.85889-4.8352c.15905-1.66651.1538-3.29346.307-5.07593a67.54329 67.54329 0 011.8512-10.15332A158.22871 158.22871 0 01279.11531 302.62991zM308.37654 327.39456c2.2002 1.709 4.2854 3.52954 6.403 5.22485.53528.41236 1.069.81836 1.5924 1.17481l.87183.519q.48046.30432.91638.63916a22.42594 22.42594 0 013.08484 3.01831 24.64709 24.64709 0 014.28735 7.35352 15.66024 15.66024 0 01.84852 8.35473 22.82742 22.82742 0 00-2.277-7.75341 32.54442 32.54442 0 00-4.38562-6.66773 22.22915 22.22915 0 00-2.75611-2.82471c-.24182-.21484-.49133-.41259-.74157-.59643l-.867-.60156a16.37051 16.37051 0 01-1.6167-1.43311A45.23044 45.23044 0 01308.37654 327.39456zM286.2983 342.64261a21.79539 21.79539 0 013.93054 8.91772c.0697.41187.12866.82764.1842 1.24488.03882.40356.04321.8811.09387 1.22753a8.2435 8.2435 0 00.50122 2.0647 20.37085 20.37085 0 002.13135 4.02612 35.301 35.301 0 002.80066 3.72706c.49011.60791 1.032 1.17211 1.55261 1.7561.565.53735 1.08008 1.13525 1.66211 1.65649a23.09678 23.09678 0 007.80628 5.20972 13.47056 13.47056 0 01-4.687-1.36572 24.55342 24.55342 0 01-4.13782-2.66162 31.23745 31.23745 0 01-6.66919-7.2273 20.76 20.76 0 01-2.24463-4.50659 9.93189 9.93189 0 01-.46252-2.62549c-.02625-.45093-.01453-.77637-.01453-1.17261l-.05737-1.14575A33.22611 33.22611 0 00286.2983 342.64261zM308.37654 368.3074a10.12653 10.12653 0 011.31531-3.64526 15.47288 15.47288 0 012.37244-3.10571 17.03687 17.03687 0 013.07446-2.39722 17.4102 17.4102 0 011.7113-.916c.59912-.24633 1.19825-.48559 1.80872-.68554-1.06128.73608-2.10706 1.4436-3.1 2.21338a30.384 30.384 0 00-2.822 2.45678 25.1058 25.1058 0 00-2.42309 2.834A19.13712 19.13712 0 00308.37654 368.3074z"/><path d="M311.9858,370.59036a104.26907,104.26907,0,0,1,7.28857-10.22681q1.975-2.44995,4.10461-4.78637a56.92421,56.92421,0,0,1,4.58179-4.39527,21.92385,21.92385,0,0,1,5.47241-3.52075,8.32653,8.32653,0,0,1,3.4-.65112,7.05728,7.05728,0,0,1,3.395.97119,10.60481,10.60481,0,0,1,4.18933,5.2,14.69493,14.69493,0,0,1,.89819,3.16431,7.9527,7.9527,0,0,1-.06628,3.39453l-.32031-.70117c2.24963,1.14746,4.41626,2.39087,6.56445,3.68457,2.14416,1.29419,4.26025,2.6372,6.29931,4.09717a36.42949,36.42949,0,0,1,5.75989,4.87036,13.99054,13.99054,0,0,1,2.227,3.1372,5.334,5.334,0,0,1,.43164,3.971l.011-.03662a5.65228,5.65228,0,0,1-1.74707,2.84009,4.077,4.077,0,0,1-3.3479.81616,8.50234,8.50234,0,0,1-3.03137-1.26514,19.2683,19.2683,0,0,1-2.4928-1.939l1.3396-.57886a10.99048,10.99048,0,0,1-.86536,3.98657,9.92068,9.92068,0,0,1-2.30139,3.38428,10.7599,10.7599,0,0,1-3.43713,2.187,15.50576,15.50576,0,0,0-1.57373.79077,6.07955,6.07955,0,0,0-.67346.44678,1.87358,1.87358,0,0,0-.22584.20386c-.05371.04614-.03894.10083.009-.07764l-.33948-.957a6.54169,6.54169,0,0,1,1.51856,1.927,5.157,5.157,0,0,1,.00036,4.89478,7.22191,7.22191,0,0,1-1.43677,1.91675,7.68336,7.68336,0,0,1-4.24768,2.02124,15.20309,15.20309,0,0,1-2.22876.10376,7.68482,7.68482,0,0,1-2.35913-.375l.70752.00244a37.648,37.648,0,0,1-7.1466,1.47241,33.97491,33.97491,0,0,1-7.27271-.03906,13.781,13.781,0,0,1-3.67017-.86646,4.88021,4.88021,0,0,1-2.8385-2.91455,5.50809,5.50809,0,0,1,.44727-3.94311,6.752,6.752,0,0,1,1.08752-1.61328,2.95706,2.95706,0,0,1,1.87781-1.07764l-.08288.00976a8.13716,8.13716,0,0,1,1.0531-.08813,8.84039,8.84039,0,0,1,1.0382.0376,5.88072,5.88072,0,0,1,2.035.5437l-.51514.60229a8.02,8.02,0,0,1-.74-1.78882,6.15405,6.15405,0,0,1-.23718-1.91186,3.95294,3.95294,0,0,1,.53638-1.852,4.18344,4.18344,0,0,1,1.32739-1.34473.10014.10014,0,0,1,.13879.02808.10326.10326,0,0,1-.02209.13452,3.88978,3.88978,0,0,0-1.10828,1.3623,3.59523,3.59523,0,0,0-.33935,1.678,5.55651,5.55651,0,0,0,.35144,1.699,7.33078,7.33078,0,0,0,.78442,1.54419.41025.41025,0,0,1-.48291.61474l-.03235-.01245a5.601,5.601,0,0,0-1.76318-.33789,7.93121,7.93121,0,0,0-.91992.02051,7.22631,7.22631,0,0,0-.89344.126l-.03991.0061-.04334.00391a2.11257,2.11257,0,0,0-1.03735.78125,5.53982,5.53982,0,0,0-.80469,1.363,4.14451,4.14451,0,0,0-.20288,2.94605,3.35733,3.35733,0,0,0,2.0542,1.89135,12.28069,12.28069,0,0,0,3.225.62281,32.12545,32.12545,0,0,0,6.85767-.21021,35.90267,35.90267,0,0,0,6.67786-1.48315,1.10136,1.10136,0,0,1,.68286-.00537l.025.008a10.22467,10.22467,0,0,0,3.57849.145,5.55219,5.55219,0,0,0,3.07508-1.44458,4.30313,4.30313,0,0,0,1.459-2.84228,3.26745,3.26745,0,0,0-.35791-1.51392,4.70219,4.70219,0,0,0-.97876-1.3164l-.07129-.06568a.91283.91283,0,0,1-.26831-.89184,1.83719,1.83719,0,0,1,.48816-.87427,3.80246,3.80246,0,0,1,.47693-.41968,7.96944,7.96944,0,0,1,.90332-.57715,17.37582,17.37582,0,0,1,1.80432-.86255,8.875,8.875,0,0,0,2.91553-1.76049,8.63618,8.63618,0,0,0,1.97949-2.74268,9.477,9.477,0,0,0,.85217-3.29614l.00367-.05908a.78931.78931,0,0,1,1.33606-.51978,18.76528,18.76528,0,0,0,2.22082,1.86475,7.16814,7.16814,0,0,0,2.46375,1.20337,2.82175,2.82175,0,0,0,2.38427-.43262,4.53341,4.53341,0,0,0,1.4845-2.18335l.01111-.03687a4.41228,4.41228,0,0,0-.23877-3.2976,11.23874,11.23874,0,0,0-1.999-3.00391,34.14972,34.14972,0,0,0-5.57825-4.85571,76.14891,76.14891,0,0,0-13.01282-7.19947.58147.58147,0,0,1-.33-.65991l.00953-.0415a6.89532,6.89532,0,0,0-.13037-2.81592,13.25856,13.25856,0,0,0-.96473-2.79785,9.52811,9.52811,0,0,0-3.66772-4.28247,5.95072,5.95072,0,0,0-5.265-.20362,20.77976,20.77976,0,0,0-5.05493,3.16773,56.00492,56.00492,0,0,0-4.57568,4.13354c-1.47522,1.44825-2.90259,2.95484-4.28894,4.50122-2.75549,3.10816-5.43762,6.301-8.00989,9.58716a.10007.10007,0,0,1-.14014.01978A.10225.10225,0,0,1,311.9858,370.59036Z"/><path d="M332.06819 355.35452a22.86522 22.86522 0 00.70154 5.48877 7.94612 7.94612 0 001.11194 2.37671 3.30978 3.30978 0 001.99255 1.344 5.19429 5.19429 0 002.53577-.02832 7.07466 7.07466 0 002.40662-1.05932 15.07941 15.07941 0 003.86206-3.89917 11.37576 11.37576 0 01-3.40857 4.53418 6.7193 6.7193 0 01-5.63758 1.42236 4.227 4.227 0 01-2.51721-1.76221 7.88991 7.88991 0 01-1.10083-2.74414A15.05283 15.05283 0 01332.06819 355.35452zM346.79 373.04349a10.78111 10.78111 0 015.35961 1.65258 12.2792 12.2792 0 012.24122 1.73755 10.95776 10.95776 0 011.7572 2.20191c-.71143-.616-1.39551-1.22754-2.12293-1.78223a22.15179 22.15179 0 00-2.24438-1.54712 21.37922 21.37922 0 00-2.4104-1.272A21.78114 21.78114 0 00346.79 373.04349zM325.84847 390.98929a6.01831 6.01831 0 001.50671 1.10791c.54089.31421 1.09082.60913 1.64649.89673 1.11169.57177 2.24023 1.11938 3.37487 1.657 2.26111 1.0979 4.551 2.14746 6.76282 3.44263a34.49577 34.49577 0 01-7.19629-2.542 26.897 26.897 0 01-3.33887-1.88965A8.03709 8.03709 0 01325.84847 390.98929zM343.48042 377.38016a3.17587 3.17587 0 011.00354.86279 1.66706 1.66706 0 01.3523 1.37183 2.23624 2.23624 0 01-.84436 1.18261 5.40185 5.40185 0 01-1.19128.69336 4.50545 4.50545 0 00-.56446.28711 4.158 4.158 0 00-.49573.28662l-.43176.37842a3.92676 3.92676 0 00-.35754.45044 4.26848 4.26848 0 00-.78955 2.16187 3.94777 3.94777 0 001.85876 3.95483 1.76256 1.76256 0 00.53613.24438c.189.06177.37293.146.56836.19751a8.71916 8.71916 0 001.226.14795 10.24935 10.24935 0 001.26953-.04419c.42041-.074.84765-.13647 1.28369-.19262-.40234.15893-.8136.31152-1.23169.45263a10.62124 10.62124 0 01-1.30335.27417 8.5478 8.5478 0 01-1.361.00684 6.07529 6.07529 0 01-.67822-.157 2.301 2.301 0 01-.66272-.23389 4.15478 4.15478 0 01-2.022-1.97022 5.259 5.259 0 01.54968-5.40747 4.80713 4.80713 0 01.48-.53686l.57068-.447a7.1828 7.1828 0 011.26245-.57349 3.03446 3.03446 0 001.861-1.29394 1.28573 1.28573 0 00-.10815-1.094A3.94307 3.94307 0 00343.48042 377.38016z"/><path d="M335.37764 358.20755a9.60672 9.60672 0 00.48 1.53955 2.65293 2.65293 0 00.86316 1.20019 1.67877 1.67877 0 001.37952.26075 5.48834 5.48834 0 00.7605-.19532c.25048-.0957.49633-.20678.76269-.29443-.20874.17871-.438.33423-.66272.50513a5.42313 5.42313 0 01-.77893.34131 1.97337 1.97337 0 01-1.73816-.23169 2.75646 2.75646 0 01-.92981-1.46582A4.34546 4.34546 0 01335.37764 358.20755zM336.29073 357.55765a5.857 5.857 0 011.65-.22119 5.56164 5.56164 0 011.67334.26635 2.8443 2.8443 0 011.40613 1.01905 2.30436 2.30436 0 01.29187 1.65869 2.98277 2.98277 0 00-.58459-1.43921 2.75469 2.75469 0 00-1.27222-.79077A11.58546 11.58546 0 00336.29073 357.55765zM343.93685 387.65115a2.56049 2.56049 0 01.87439-1.00464 1.80739 1.80739 0 011.38476-.28662 2.32874 2.32874 0 011.14331.8086c.11865.19311.24341.37988.34534.57519.07629.21069.165.41113.22461.62207-.29309-.33325-.55152-.66528-.84387-.95508a2.27513 2.27513 0 00-.97974-.58862 1.56706 1.56706 0 00-1.09668.14233A4.99009 4.99009 0 00343.93685 387.65115zM326.38082 389.867a5.29494 5.29494 0 01.58483-2.24707 1.59471 1.59471 0 01.95752-.82422 1.48273 1.48273 0 011.24427.33057 3.30292 3.30292 0 01.82446.90869 1.75128 1.75128 0 01.2085 1.23828 2.73373 2.73373 0 01-1.55591 1.71607 3.10759 3.10759 0 001.19555-1.77906 1.5582 1.5582 0 00-.2207-.95483 2.90324 2.90324 0 00-.73181-.74536 1.04652 1.04652 0 00-.86609-.2937 1.38411 1.38411 0 00-.74768.59765A7.95371 7.95371 0 00326.38082 389.867zM314.18221 384.07327a5.29489 5.29489 0 01-.64331 2.231 1.59457 1.59457 0 01-.97876.79907 1.48293 1.48293 0 01-1.23523-.363 3.29682 3.29682 0 01-.80042-.92993 1.75083 1.75083 0 01-.17615-1.24316 2.73346 2.73346 0 011.60035-1.67481 3.10688 3.10688 0 00-1.2417 1.74707 1.55785 1.55785 0 00.19568.96045 2.90218 2.90218 0 00.71215.76416 1.04624 1.04624 0 00.85816.31617 1.38414 1.38414 0 00.76306-.57789A7.9642 7.9642 0 00314.18221 384.07327zM321.34065 397.00931a5.55773 5.55773 0 01.8512-1.49634 2.8728 2.8728 0 01.65234-.61939 1.09282 1.09282 0 011.0094-.15722 1.37465 1.37465 0 01.62842.76977 3.22063 3.22063 0 01.20105.86768 5.22334 5.22334 0 01-.07568 1.71973 14.07062 14.07062 0 00-.28418-1.65455 5.39461 5.39461 0 00-.23938-.76318c-.11389-.21826-.25-.45386-.42224-.50488-.32459-.17774-.83045.22363-1.20056.5874A16.661 16.661 0 00321.34065 397.00931z"/><path d="M308.37225 370.64937l-4.03992 4.45019s.02991 5.69-2.85 5.92994c0 0-1.46 1.32006-.42 1.59008.93.23 4.28-.60009 5.73-.43017 0 0 6.87-1.35987 8.04-.61988a2.93079 2.93079 0 011.2699 2.11011l.56006-.06006 21.67 1.29 9.4-14.26025zm27.92005 9.98l-30.41-.50977 3.97-6.39013h30.47009zM283.452 381.032a11.30959 11.30959 0 013.90381-1.82837 13.34082 13.34082 0 014.38135-.37866.50092.50092 0 01-.0752.999.56452.56452 0 01-.06152-.00854 12.59823 12.59823 0 00-4.14551-.12183A11.06483 11.06483 0 00283.452 381.032zM291.66878 391.36209c2.81372.05225 5.62683.1499 8.44116.41748.69629.06226 1.42444.17578 2.0968.25415a11.61473 11.61473 0 002.04554.04077 12.09011 12.09011 0 003.9198-.94043l.03283-.01465a.50045.50045 0 01.40393.91578l-.02783.01147a12.87361 12.87361 0 01-4.29932.77734 12.31862 12.31862 0 01-2.16186-.17138c-.71863-.12793-1.37366-.27173-2.0741-.3772C297.27767 391.84549 294.47237 391.58035 291.66878 391.36209zM293.83711 399.12234q1.43079-.51562 2.89222-.96045a23.61324 23.61324 0 013.007-.73657.502.502 0 01.16.99121.52405.52405 0 01-.08.00635h-.00976a22.93942 22.93942 0 00-2.97266.228C295.83394 398.7803 294.83382 398.93973 293.83711 399.12234zM297.60311 373.854a6.263 6.263 0 001.77722 1.28882 9.87582 9.87582 0 002.103.69678 3.32881 3.32881 0 01-1.16943.06055 4.00773 4.00773 0 01-1.14282-.33081 3.76839 3.76839 0 01-.96033-.70923A2.485 2.485 0 01297.60311 373.854zM312.86727 391.53738a1 1 0 01-.00928-2l12.66748-.11914a.98026.98026 0 011.00928.99024.99989.99989 0 01-.99073 1.00976l-12.66748.11914zM347.67586 391.21316a1 1 0 01-.00147-2l34.918-.04589h.00147a1 1 0 01.00146 2l-34.918.04589zM579.48836 390.90457a1 1 0 01-.001-2l32.09522-.03906h.001a1 1 0 01.001 2l-32.09473.03906zM396.69246 390.389h-2.374a.241.241 0 01-.2417-.23731.23435.23435 0 01.23389-.2373h2.38183a.23731.23731 0 110 .47461zM88.41658 393.63016a1 1 0 01-.00928-2l44.02735-.40918a1.02771 1.02771 0 011.00928.99023 1.00022 1.00022 0 01-.99073 1.00977l-44.02734.40918zM254.46484 255.212a1.42738 1.42738 0 000-2.85306 1.42738 1.42738 0 000 2.85306zM326.57747 227.54227l-11.67847.435c-3.83129.11622-7.61987.209-11.387.2793-3.76135.05225-7.51013.11182-11.24341.06983-3.73535-.02808-7.47009-.19507-11.24243-.29932l.5553-.55542c-.06006 2.155-.15772 4.3103-.18677 6.46533-.05285 2.155-.05481 4.31006-.06763 6.46533-.003 4.31006.08753 8.62036.20923 12.93042l-.51013-.51025 9.31958-.25879a.71607.71607 0 01.51648.199l.02759.02637 3.5592 3.4231H293.2253l3.44165-3.54053a.90012.90012 0 01.63794-.27368l.02356-.00025c4.88659-.04028 9.77319-.14062 14.65979-.13159q3.665-.0183 7.32995.03l7.32984.09278-.94385.94384c.06714-4.20044.18823-8.40161.36206-12.68945zm.14136-.14136l.51123 12.76025c.17383 4.33252.29492 8.75171.36206 13.17163a.92983.92983 0 01-.91553.94385h-.00232l-.02624.00024-7.32984.09278q-3.665.04395-7.32995.03c-4.8866.009-9.7732-.09131-14.65979-.13159l.66113-.27369-3.54041 3.44165-.02075.02027a.84861.84861 0 01-1.20007-.01709l-.00317-.00318-3.4231-3.55908.5437.2251-9.31958-.25879-.02856-.00073a.496.496 0 01-.48194-.50952v-.00025c.12183-4.31006.21228-8.62036.20935-12.93042-.01281-2.15527-.01477-4.3103-.06762-6.46533-.02906-2.155-.12683-4.3103-.18677-6.46533a.53983.53983 0 01.52466-.55469h.00036l.03052-.00073c3.8313-.10425 7.70007-.27149 11.56848-.29932 3.87036-.042 7.72522.01758 11.56763.06983 3.83643.07007 7.65161.16308 11.42395.27929zM460.74764 179.70437l-17.18848.29737-17.04248.21484-33.84937.23779-16.8396-.05932-16.83056-.21289c-11.23071-.17237-22.51868-.25464-33.80078-.22632l.32214-.322.05982 12.93042.1488 12.93066-.53076-.53076c9.94323-.1355 19.88659-.26367 29.82983-.33252l29.83-.16455c9.94323-.0769 19.88659.01147 29.82983.00928 9.94336-.01221 19.8866.11841 29.83.198l.01379.00024a.80493.80493 0 01.56653.24023l3.46008 3.52222h-1.098l3.52991-3.45215.01318-.01294a.69876.69876 0 01.49719-.19848l9.31958.13549-.58569.58594c.068-4.24389.12378-8.48755.24121-12.78808zm.14135-.14135l.27381 12.8584c.11755 4.32006.17334 8.69677.24133 13.07348a.577.577 0 01-.56775.5857h-.00061l-.01758.00024-9.31958.1355.51-.21118-3.45215 3.53a.768.768 0 01-1.08593.012l-.00122-.00122-.01111-.01074-3.52234-3.46.58008.24024c-9.94336.07959-19.8866.2102-29.83.198-9.94324-.0022-19.8866.08618-29.82983.00927l-29.83-.16455c-9.94324-.06884-19.8866-.197-29.82983-.33252h-.01343a.524.524 0 01-.51758-.53076l.14881-12.93066.05969-12.93042a.32315.32315 0 01.32251-.32251c11.32141.02856 22.6372-.05371 34.01013-.22608l17.07483-.21289 17.06592-.05957 33.96167.238 16.86291.2146zM366.57747 124.51736c-7.33325.20874-14.541.354-21.70837.479-7.18189.14917-14.27845.21582-21.37171.2705-7.09143.05567-14.13537.01124-21.19421-.14672-7.06262-.12085-14.15772-.31787-21.277-.35328l.32019-.32006c-.003 2.155-.03369 4.31006-.00964 6.46508l.03943 6.46534c.00525 4.3103.11035 8.62036.17334 12.93066l-.52332-.52344 9.31958-.17456a.66551.66551 0 01.475.18628l.0188.01831 3.54687 3.43506H293.2878l3.44714-3.53491a.81148.81148 0 01.57337-.24561l.02014-.00024 17.32983-.15064c5.77673-.04589 11.55335-.08813 17.33-.0791 11.55322-.00537 23.10656.16358 34.65979.31739l-.75135.75146.30713-12.74658zm.14136-.14135l.37366 12.81713.30712 13.11475a.73412.73412 0 01-.71667.751l-.00745.00024-.02746.00025c-11.55323.1538-23.10657.32275-34.65979.31738-5.77661.00928-11.55323-.0332-17.33-.07886l-17.32983-.15088.59314-.2456-3.53492 3.447-.01586.01538a.76467.76467 0 01-1.0813-.01343l-.00183-.00195-3.43531-3.54688.49341.20435-9.31958-.17456-.01745-.00025a.51417.51417 0 01-.50623-.52319c.063-4.3103.16821-8.62036.17346-12.93066l.03943-6.46534c.024-2.155-.00671-4.31005-.00964-6.46508a.3208.3208 0 01.32043-.32056c7.151-.0354 14.32617-.23242 21.53394-.353 7.21154-.1582 14.43786-.20239 21.61682-.147 7.177.05493 14.35083.12158 21.43921.27075C352.71919 124.02176 359.78182 124.16727 366.71883 124.376z"/></svg>